<?xml version="1.0" encoding="iso-8859-1"?>
<!-- Generator: Adobe Illustrator 19.0.0, SVG Export Plug-In . SVG Version: 6.00 Build 0)  -->
<svg version="1.1" id="Layer_1" xmlns="http://www.w3.org/2000/svg" xmlns:xlink="http://www.w3.org/1999/xlink" x="0px" y="0px"
	 viewBox="0 0 512 512" style="enable-background:new 0 0 512 512;" xml:space="preserve">
<g transform="translate(1 1)">
	<g>
		<g>
			<path d="M58.733,41.667H41.667c-5.12,0-8.533,3.413-8.533,8.533s3.413,8.533,8.533,8.533h17.067c5.12,0,8.533-3.413,8.533-8.533
				S63.853,41.667,58.733,41.667z"/>
			<path d="M58.733,75.8H41.667c-5.12,0-8.533,3.413-8.533,8.533c0,5.12,3.413,8.533,8.533,8.533h17.067
				c5.12,0,8.533-3.413,8.533-8.533C67.267,79.213,63.853,75.8,58.733,75.8z"/>
			<path d="M58.733,109.933H41.667c-5.12,0-8.533,3.413-8.533,8.533S36.547,127,41.667,127h17.067c5.12,0,8.533-3.413,8.533-8.533
				S63.853,109.933,58.733,109.933z"/>
			<path d="M58.733,144.067H41.667c-5.12,0-8.533,3.413-8.533,8.533c0,5.12,3.413,8.533,8.533,8.533h17.067
				c5.12,0,8.533-3.413,8.533-8.533C67.267,147.48,63.853,144.067,58.733,144.067z"/>
			<path d="M58.733,178.2H41.667c-5.12,0-8.533,3.413-8.533,8.533s3.413,8.533,8.533,8.533h17.067c5.12,0,8.533-3.413,8.533-8.533
				S63.853,178.2,58.733,178.2z"/>
			<path d="M58.733,212.333H41.667c-5.12,0-8.533,3.413-8.533,8.533s3.413,8.533,8.533,8.533h17.067c5.12,0,8.533-3.413,8.533-8.533
				S63.853,212.333,58.733,212.333z"/>
			<path d="M58.733,246.467H41.667c-5.12,0-8.533,3.413-8.533,8.533s3.413,8.533,8.533,8.533h17.067c5.12,0,8.533-3.413,8.533-8.533
				S63.853,246.467,58.733,246.467z"/>
			<path d="M58.733,280.6H41.667c-5.12,0-8.533,3.413-8.533,8.533s3.413,8.533,8.533,8.533h17.067c5.12,0,8.533-3.413,8.533-8.533
				S63.853,280.6,58.733,280.6z"/>
			<path d="M58.733,314.733H41.667c-5.12,0-8.533,3.413-8.533,8.533s3.413,8.533,8.533,8.533h17.067c5.12,0,8.533-3.413,8.533-8.533
				S63.853,314.733,58.733,314.733z"/>
			<path d="M58.733,348.867H41.667c-5.12,0-8.533,3.413-8.533,8.533s3.413,8.533,8.533,8.533h17.067c5.12,0,8.533-3.413,8.533-8.533
				S63.853,348.867,58.733,348.867z"/>
			<path d="M58.733,383H41.667c-5.12,0-8.533,3.413-8.533,8.533c0,5.12,3.413,8.533,8.533,8.533h17.067
				c5.12,0,8.533-3.413,8.533-8.533C67.267,386.413,63.853,383,58.733,383z"/>
			<path d="M58.733,417.133H41.667c-5.12,0-8.533,3.413-8.533,8.533s3.413,8.533,8.533,8.533h17.067c5.12,0,8.533-3.413,8.533-8.533
				S63.853,417.133,58.733,417.133z"/>
			<path d="M58.733,451.267H41.667c-5.12,0-8.533,3.413-8.533,8.533c0,5.12,3.413,8.533,8.533,8.533h17.067
				c5.12,0,8.533-3.413,8.533-8.533C67.267,454.68,63.853,451.267,58.733,451.267z"/>
			<path d="M510.965,24.101C510.251,10.212,498.6-1,484.547-1h-0.853H408.6h-34.133H135.533H101.4H25.453
				C10.947-1-1,10.947-1,25.453v459.093C-1,499.053,10.947,511,25.453,511H101.4h34.133h238.08h0.853H408.6h75.947
				C499.053,511,511,499.053,511,483.693V25.453C511,25,510.988,24.549,510.965,24.101z M356.547,16.067v75.947
				c0,5.12-4.267,9.387-9.387,9.387H161.987c-5.12,0-9.387-4.267-9.387-9.387V16.067H356.547z M25.453,493.933
				c-5.12,0-9.387-4.267-9.387-10.24V25.453c0-5.12,4.267-9.387,9.387-9.387h58.88v477.867H25.453z M152.6,493.933v-75.947
				c0-5.12,4.267-9.387,9.387-9.387h186.027c5.12,0,9.387,4.267,9.387,9.387v75.947H152.6z M373.613,493.933v-75.947
				c0-14.507-11.947-26.453-26.453-26.453H161.987c-14.507,0-26.453,11.947-26.453,26.453v75.947H101.4V16.067h34.133v75.947
				c0,14.507,11.947,26.453,26.453,26.453h186.027c14.507,0,26.453-11.947,26.453-26.453V16.067H408.6v477.867H373.613z
				 M425.667,493.933V16.067h58.88c5.12,0,9.387,4.267,8.533,9.387v459.093c0,5.12-4.267,9.387-9.387,9.387H425.667z"/>
			<path d="M468.333,41.667h-17.067c-5.12,0-8.533,3.413-8.533,8.533s3.413,8.533,8.533,8.533h17.067
				c5.12,0,8.533-3.413,8.533-8.533S473.453,41.667,468.333,41.667z"/>
			<path d="M468.333,75.8h-17.067c-5.12,0-8.533,3.413-8.533,8.533c0,5.12,3.413,8.533,8.533,8.533h17.067
				c5.12,0,8.533-3.413,8.533-8.533C476.867,79.213,473.453,75.8,468.333,75.8z"/>
			<path d="M468.333,109.933h-17.067c-5.12,0-8.533,3.413-8.533,8.533s3.413,8.533,8.533,8.533h17.067
				c5.12,0,8.533-3.413,8.533-8.533S473.453,109.933,468.333,109.933z"/>
			<path d="M468.333,144.067h-17.067c-5.12,0-8.533,3.413-8.533,8.533c0,5.12,3.413,8.533,8.533,8.533h17.067
				c5.12,0,8.533-3.413,8.533-8.533C476.867,147.48,473.453,144.067,468.333,144.067z"/>
			<path d="M468.333,178.2h-17.067c-5.12,0-8.533,3.413-8.533,8.533s3.413,8.533,8.533,8.533h17.067c5.12,0,8.533-3.413,8.533-8.533
				S473.453,178.2,468.333,178.2z"/>
			<path d="M468.333,212.333h-17.067c-5.12,0-8.533,3.413-8.533,8.533s3.413,8.533,8.533,8.533h17.067
				c5.12,0,8.533-3.413,8.533-8.533S473.453,212.333,468.333,212.333z"/>
			<path d="M468.333,246.467h-17.067c-5.12,0-8.533,3.413-8.533,8.533s3.413,8.533,8.533,8.533h17.067
				c5.12,0,8.533-3.413,8.533-8.533S473.453,246.467,468.333,246.467z"/>
			<path d="M468.333,280.6h-17.067c-5.12,0-8.533,3.413-8.533,8.533s3.413,8.533,8.533,8.533h17.067c5.12,0,8.533-3.413,8.533-8.533
				S473.453,280.6,468.333,280.6z"/>
			<path d="M468.333,314.733h-17.067c-5.12,0-8.533,3.413-8.533,8.533s3.413,8.533,8.533,8.533h17.067
				c5.12,0,8.533-3.413,8.533-8.533S473.453,314.733,468.333,314.733z"/>
			<path d="M468.333,348.867h-17.067c-5.12,0-8.533,3.413-8.533,8.533s3.413,8.533,8.533,8.533h17.067
				c5.12,0,8.533-3.413,8.533-8.533S473.453,348.867,468.333,348.867z"/>
			<path d="M468.333,383h-17.067c-5.12,0-8.533,3.413-8.533,8.533c0,5.12,3.413,8.533,8.533,8.533h17.067
				c5.12,0,8.533-3.413,8.533-8.533C476.867,386.413,473.453,383,468.333,383z"/>
			<path d="M468.333,417.133h-17.067c-5.12,0-8.533,3.413-8.533,8.533s3.413,8.533,8.533,8.533h17.067
				c5.12,0,8.533-3.413,8.533-8.533S473.453,417.133,468.333,417.133z"/>
			<path d="M468.333,451.267h-17.067c-5.12,0-8.533,3.413-8.533,8.533c0,5.12,3.413,8.533,8.533,8.533h17.067
				c5.12,0,8.533-3.413,8.533-8.533C476.867,454.68,473.453,451.267,468.333,451.267z"/>
			<path d="M373.613,179.053c0-14.507-11.947-26.453-26.453-26.453H161.987c-14.507,0-26.453,11.947-26.453,26.453v151.893
				c0,14.507,11.947,26.453,26.453,26.453h186.027c14.507,0,26.453-11.947,25.6-27.307V179.053z M356.547,330.093
				c0,5.12-4.267,9.387-9.387,9.387H161.987c-5.12,0-9.387-4.267-9.387-9.387v-151.04c0-5.12,4.267-9.387,9.387-9.387H347.16
				c5.12,0,9.387,4.267,9.387,9.387V330.093z"/>
		</g>
	</g>
</g>
<g>
</g>
<g>
</g>
<g>
</g>
<g>
</g>
<g>
</g>
<g>
</g>
<g>
</g>
<g>
</g>
<g>
</g>
<g>
</g>
<g>
</g>
<g>
</g>
<g>
</g>
<g>
</g>
<g>
</g>
</svg>
