<?xml version="1.0" encoding="iso-8859-1"?>
<!-- Generator: Adobe Illustrator 16.0.0, SVG Export Plug-In . SVG Version: 6.00 Build 0)  -->
<!DOCTYPE svg PUBLIC "-//W3C//DTD SVG 1.1//EN" "http://www.w3.org/Graphics/SVG/1.1/DTD/svg11.dtd">
<svg version="1.1" id="Capa_1" xmlns="http://www.w3.org/2000/svg" xmlns:xlink="http://www.w3.org/1999/xlink" x="0px" y="0px"
	 width="151.851px" height="151.851px" viewBox="0 0 151.851 151.851" style="enable-background:new 0 0 151.851 151.851;"
	 xml:space="preserve">
<g>
	<g>
		<path d="M105.987,45.31h22.408l-11.904-15.588l11.904-15.588h-22.408v-1.06C105.987,5.867,100.361,0,93.432,0
			c-6.911,0-12.556,5.861-12.556,13.074v28.202c-1.982-1.328-4.345-2.119-6.89-2.119c-3.766,0-7.127,1.726-9.453,4.42
			c-2.333-2.695-5.688-4.42-9.466-4.42c-3.766,0-7.125,1.726-9.45,4.42c-2.326-2.695-5.688-4.42-9.459-4.42
			c-6.771,0-12.285,5.504-12.632,12.382l-0.07,0.344v0.356v12.793v7.401v26.491v7.745c0,26.61,20.938,45.182,50.942,45.182
			c30.007,0,50.941-18.571,50.941-45.182V75.25c0-2.012-1.564-4.292-2.618-5.19c-2.149-1.866-9.305-3.312-16.782-4.372l0.037-0.168
			V45.316h0.012V45.31z M87.123,45.31h12.629v19.585c-2.643-0.304-5.169-0.56-7.331-0.767c-2.021-0.21-3.745-0.167-5.31-0.012
			L87.123,45.31L87.123,45.31z M115.804,39.074H88.024V20.369h27.779l-7.149,9.353L115.804,39.074z M93.456,6.235
			c3.483,0,6.309,3.06,6.309,6.838v1.06H87.136v-1.06C87.123,9.295,89.961,6.235,93.456,6.235z M73.986,45.398
			c3.565,0,6.476,3.069,6.476,6.854v12.75l0.256,1.221c-2.235,1.51-3.525,3.556-4.244,5.496c-0.887,2.411-0.941,4.932-0.362,7.282
			c-0.561,0.171-1.146,0.28-1.745,0.28c-3.479,0-6.277-2.935-6.408-6.579l0.024-0.268V51.746l-0.183-0.91
			C68.436,47.742,70.893,45.398,73.986,45.398z M55.088,45.398c3.249,0,5.849,2.606,6.296,5.916l-0.101,0.925v21.062l0.143,0.737
			c-0.691,2.977-3.13,5.231-6.147,5.231c-3.45,0-6.199-2.875-6.397-6.461l0.006-0.03v-0.362V52.239v-0.505l-0.088-0.438
			C49.258,47.992,51.84,45.398,55.088,45.398z M29.715,65.032V52.239c0-3.772,2.901-6.847,6.467-6.847
			c3.254,0,5.849,2.594,6.296,5.91l-0.091,0.932v21.586c-0.636,3.081-3.099,5.444-6.199,5.444c-3.565,0-6.473-3.069-6.473-6.848
			V65.032z M118.629,74.735l0.499,0.514v31.42c0,22.932-18.377,38.947-44.707,38.947c-26.323,0-44.706-16.016-44.706-38.947v-7.745
			V83.628c1.909,1.169,4.098,1.888,6.473,1.888c3.821,0,7.216-1.784,9.548-4.542c2.323,2.746,5.724,4.542,9.545,4.542
			c3.814,0,7.209-1.784,9.539-4.542c2.332,2.746,5.727,4.542,9.547,4.542c1.642,0,3.236-0.414,4.744-1.048
			c1.449,1.627,3.288,2.973,5.541,3.788l19.899,5.505c1.644,0.438,3.379-0.523,3.836-2.192c0.45-1.656-0.518-3.374-2.18-3.824
			l-19.656-5.419c-3.556-1.315-5.449-5.104-4.226-8.464c0.487-1.315,1.583-4.427,9.456-3.517
			C103.089,71.374,116.595,73.38,118.629,74.735z"/>
	</g>
</g>
<g>
</g>
<g>
</g>
<g>
</g>
<g>
</g>
<g>
</g>
<g>
</g>
<g>
</g>
<g>
</g>
<g>
</g>
<g>
</g>
<g>
</g>
<g>
</g>
<g>
</g>
<g>
</g>
<g>
</g>
</svg>
